<svg width="106" height="52" viewBox="0 0 106 52" fill="none" xmlns="http://www.w3.org/2000/svg">
	<path fill-rule="evenodd" clip-rule="evenodd"
		d="M91.7338 51.4877H97.9459V24.2142H91.7338V51.4877ZM71.8192 50.9301C74.4171 51.5065 76.996 52.0038 79.6394 52.0038C86.8035 52.0038 89.0562 48.0705 89.0562 44.8869C89.0562 38.2673 77.8227 35.3135 77.8227 30.977C77.8227 29.7639 79.0591 28.0873 82.188 28.0873C84.1601 28.0873 86.1284 28.6147 87.945 29.2665L87.3344 24.4817C85.1916 24.0296 82.9692 23.7508 80.7961 23.7508C74.1174 23.7508 71.6144 27.0625 71.6144 30.5739C71.6144 37.039 82.8478 40.7199 82.8478 44.6382C82.8478 46.9214 80.4244 47.6673 78.4827 47.6673C75.9796 47.6673 73.4613 46.9214 71.1631 45.9117L71.8192 50.9301ZM30.4578 49.7659L33.8218 41.9632H44.4295L47.4332 49.7659L53.7515 51.1034L53.8615 51.1184C56.1598 51.6158 58.4619 52.0038 60.7905 52.0038C67.9546 52.0038 70.2073 48.0705 70.2073 44.8869C70.2073 38.2673 58.9739 35.3135 58.9739 30.977C58.9739 29.7639 60.2102 28.0873 63.3391 28.0873C65.3112 28.0873 67.2795 28.6147 69.0961 29.2665L68.4855 24.4817C66.3428 24.0296 64.1203 23.7508 61.9472 23.7508C55.2686 23.7508 52.7655 27.0625 52.7655 30.5739C52.7655 37.039 63.999 40.7199 63.999 44.6382C63.999 46.9214 61.5755 47.6673 59.6338 47.6673C57.1459 47.6673 54.6731 46.9364 52.39 45.9267L43.3941 24.218H36.0746L25.6261 45.9267C23.4682 46.5484 21.1206 46.9214 18.2421 46.9214C11.8441 46.9214 7.2589 42.664 7.2589 35.4529C7.2589 28.2418 11.8441 24.0145 18.2421 24.0145C21.7919 24.0145 24.295 24.5571 26.6729 25.2126L26.6274 20.3487L26.5819 19.8514C23.8285 19.3239 20.9955 18.9509 18.2459 18.9509C8.37012 18.9472 0 24.0108 0 35.4491C0 46.8875 8.37012 52.0001 18.2383 52.0001C23.9157 51.9548 30.454 49.7621 30.454 49.7621L30.4578 49.7659ZM35.464 37.6305L39.5296 28.5243L43.0642 37.6305H35.4602H35.464Z"
		fill="white" />
	<path fill-rule="evenodd" clip-rule="evenodd"
		d="M91.3887 21.3396C91.218 21.2793 91.0435 21.2303 90.8881 21.17L105.857 11.1295C105.857 11.2839 105.842 11.4384 105.842 11.5967L91.3887 21.3396ZM102.478 3.06311C102.869 3.4361 103.244 3.8543 103.574 4.29134L85.351 16.5058C85.0703 16.0236 84.82 15.5413 84.6152 15.0289C84.6152 15.0289 93.2356 9.26453 102.478 3.06311ZM84.3156 14.2038C84.0956 13.503 83.9553 12.806 83.8795 12.0902L100.009 1.27728C100.65 1.62013 101.245 2.02326 101.807 2.47537L84.3194 14.2076L84.3156 14.2038ZM83.8302 11.5138C83.6443 7.81402 85.3472 4.10296 88.6808 1.86502C91.9955 -0.357843 96.1104 -0.542454 99.4895 1.02486L83.8302 11.5138ZM86.849 18.4913C86.5684 18.1974 86.2877 17.8697 86.0374 17.5268L104.276 5.29728C104.496 5.67027 104.697 6.04326 104.871 6.41625L86.849 18.4913ZM88.8666 20.1377C88.6012 19.9682 88.3357 19.7798 88.0854 19.5952L105.432 7.97225C105.527 8.26612 105.588 8.57883 105.652 8.88777L88.8666 20.1377Z"
		fill="#FCFC1B" />
</svg>